<?xml version="1.0" encoding="UTF-8" standalone="no"?>
<!DOCTYPE svg PUBLIC "-//W3C//DTD SVG 1.1//EN"
 "http://www.w3.org/Graphics/SVG/1.1/DTD/svg11.dtd">
<!-- Generated by graphviz version 2.28.0 (20120716.1447)
 -->
<!-- Title: G Pages: 1 -->
<svg width="711pt" height="96pt"
 viewBox="0.00 0.00 711.00 96.00" xmlns="http://www.w3.org/2000/svg" xmlns:xlink="http://www.w3.org/1999/xlink">
<g id="graph1" class="graph" transform="scale(1 1) rotate(0) translate(4 92)">
<title>G</title>
<polygon fill="white" stroke="white" points="-4,5 -4,-92 708,-92 708,5 -4,5"/>
<!-- Node1 -->
<g id="node1" class="node"><title>Node1</title>
<polygon fill="#bfbfbf" stroke="black" points="207,-68.5 207,-87.5 269,-87.5 269,-68.5 207,-68.5"/>
<text text-anchor="middle" x="238" y="-75.5" font-family="Helvetica,sans-Serif" font-size="10.00">bingo.hxx</text>
</g>
<!-- Node2 -->
<g id="node3" class="node"><title>Node2</title>
<polygon fill="white" stroke="#bfbfbf" points="0,-6.5 0,-25.5 64,-25.5 64,-6.5 0,-6.5"/>
<text text-anchor="middle" x="32" y="-13.5" font-family="Helvetica,sans-Serif" font-size="10.00">stdexcept</text>
</g>
<!-- Node1&#45;&gt;Node2 -->
<g id="edge2" class="edge"><title>Node1&#45;&gt;Node2</title>
<path fill="none" stroke="midnightblue" d="M206.752,-69.3164C173.397,-60.9201 119.113,-46.6946 73,-32 70.0617,-31.0637 67.0217,-30.0461 63.9866,-28.9967"/>
<polygon fill="midnightblue" stroke="midnightblue" points="65.0335,-25.6542 54.4388,-25.597 62.6854,-32.2487 65.0335,-25.6542"/>
</g>
<!-- Node3 -->
<g id="node5" class="node"><title>Node3</title>
<polygon fill="white" stroke="#bfbfbf" points="82,-6.5 82,-25.5 124,-25.5 124,-6.5 82,-6.5"/>
<text text-anchor="middle" x="103" y="-13.5" font-family="Helvetica,sans-Serif" font-size="10.00">limits</text>
</g>
<!-- Node1&#45;&gt;Node3 -->
<g id="edge4" class="edge"><title>Node1&#45;&gt;Node3</title>
<path fill="none" stroke="midnightblue" d="M216.922,-68.3943C195.606,-59.5916 161.787,-45.3513 133,-32 131.646,-31.3722 130.263,-30.7197 128.87,-30.0539"/>
<polygon fill="midnightblue" stroke="midnightblue" points="130.255,-26.8353 119.734,-25.5845 127.179,-33.1232 130.255,-26.8353"/>
</g>
<!-- Node4 -->
<g id="node7" class="node"><title>Node4</title>
<polygon fill="white" stroke="#bfbfbf" points="142,-6.5 142,-25.5 196,-25.5 196,-6.5 142,-6.5"/>
<text text-anchor="middle" x="169" y="-13.5" font-family="Helvetica,sans-Serif" font-size="10.00">random</text>
</g>
<!-- Node1&#45;&gt;Node4 -->
<g id="edge6" class="edge"><title>Node1&#45;&gt;Node4</title>
<path fill="none" stroke="midnightblue" d="M228.114,-68.4035C217.354,-59.047 199.929,-43.8948 186.779,-32.4599"/>
<polygon fill="midnightblue" stroke="midnightblue" points="188.71,-29.5013 178.868,-25.5806 184.117,-34.7835 188.71,-29.5013"/>
</g>
<!-- Node5 -->
<g id="node9" class="node"><title>Node5</title>
<polygon fill="white" stroke="#bfbfbf" points="214.5,-6.5 214.5,-25.5 261.5,-25.5 261.5,-6.5 214.5,-6.5"/>
<text text-anchor="middle" x="238" y="-13.5" font-family="Helvetica,sans-Serif" font-size="10.00">deque</text>
</g>
<!-- Node1&#45;&gt;Node5 -->
<g id="edge8" class="edge"><title>Node1&#45;&gt;Node5</title>
<path fill="none" stroke="midnightblue" d="M238,-68.4035C238,-59.9381 238,-46.7283 238,-35.8199"/>
<polygon fill="midnightblue" stroke="midnightblue" points="241.5,-35.5806 238,-25.5806 234.5,-35.5806 241.5,-35.5806"/>
</g>
<!-- Node6 -->
<g id="node11" class="node"><title>Node6</title>
<polygon fill="white" stroke="#bfbfbf" points="280,-6.5 280,-25.5 400,-25.5 400,-6.5 280,-6.5"/>
<text text-anchor="middle" x="340" y="-13.5" font-family="Helvetica,sans-Serif" font-size="10.00">boost/multi_array.hpp</text>
</g>
<!-- Node1&#45;&gt;Node6 -->
<g id="edge10" class="edge"><title>Node1&#45;&gt;Node6</title>
<path fill="none" stroke="midnightblue" d="M252.614,-68.4035C269.353,-58.5569 297.004,-42.2915 316.719,-30.6949"/>
<polygon fill="midnightblue" stroke="midnightblue" points="318.568,-33.6676 325.413,-25.5806 315.019,-27.6341 318.568,-33.6676"/>
</g>
<!-- Node7 -->
<g id="node13" class="node"><title>Node7</title>
<polygon fill="white" stroke="#bfbfbf" points="418,-6.5 418,-25.5 562,-25.5 562,-6.5 418,-6.5"/>
<text text-anchor="middle" x="490" y="-13.5" font-family="Helvetica,sans-Serif" font-size="10.00">boost/range/algorithm.hpp</text>
</g>
<!-- Node1&#45;&gt;Node7 -->
<g id="edge12" class="edge"><title>Node1&#45;&gt;Node7</title>
<path fill="none" stroke="midnightblue" d="M269.153,-69.5826C313.011,-59.1402 393.261,-40.0331 443.998,-27.9528"/>
<polygon fill="midnightblue" stroke="midnightblue" points="445.126,-31.2823 454.043,-25.5612 443.504,-24.4726 445.126,-31.2823"/>
</g>
<!-- Node8 -->
<g id="node15" class="node"><title>Node8</title>
<polygon fill="white" stroke="#bfbfbf" points="580.5,-1 580.5,-31 703.5,-31 703.5,-1 580.5,-1"/>
<text text-anchor="start" x="588.5" y="-19" font-family="Helvetica,sans-Serif" font-size="10.00">boost/range/algorithm</text>
<text text-anchor="middle" x="642" y="-8" font-family="Helvetica,sans-Serif" font-size="10.00">_ext.hpp</text>
</g>
<!-- Node1&#45;&gt;Node8 -->
<g id="edge14" class="edge"><title>Node1&#45;&gt;Node8</title>
<path fill="none" stroke="midnightblue" d="M269.337,-73.548C326.885,-67.0402 453.459,-51.9449 570.623,-31.9826"/>
<polygon fill="midnightblue" stroke="midnightblue" points="571.218,-35.4318 580.48,-30.2876 570.031,-28.533 571.218,-35.4318"/>
</g>
</g>
</svg>
