<?xml version="1.0" encoding="UTF-8" standalone="no"?>
<!DOCTYPE svg PUBLIC "-//W3C//DTD SVG 1.1//EN"
 "http://www.w3.org/Graphics/SVG/1.1/DTD/svg11.dtd">
<!-- Generated by graphviz version 2.28.0 (20120716.1447)
 -->
<!-- Title: G Pages: 1 -->
<svg width="504pt" height="48pt"
 viewBox="0.00 0.00 504.00 48.00" xmlns="http://www.w3.org/2000/svg" xmlns:xlink="http://www.w3.org/1999/xlink">
<g id="graph1" class="graph" transform="scale(1 1) rotate(0) translate(4 44)">
<title>G</title>
<polygon fill="white" stroke="white" points="-4,5 -4,-44 501,-44 501,5 -4,5"/>
<!-- Node1 -->
<g id="node1" class="node"><title>Node1</title>
<polygon fill="#bfbfbf" stroke="black" points="0,0.5 0,-40.5 132,-40.5 132,0.5 0,0.5"/>
<text text-anchor="start" x="8" y="-28.5" font-family="Helvetica,sans-Serif" font-size="10.00">WonderRabbitProject</text>
<text text-anchor="start" x="8" y="-17.5" font-family="Helvetica,sans-Serif" font-size="10.00">::bingo::lottery_machine</text>
<text text-anchor="middle" x="66" y="-6.5" font-family="Helvetica,sans-Serif" font-size="10.00">::shuffle</text>
</g>
<!-- Node2 -->
<g id="node3" class="node"><title>Node2</title>
<a xlink:href="structWonderRabbitProject_1_1bingo_1_1lottery__machine.html#afdabe377ba29064d346671ece2d2e57a" target="_top" xlink:title="WonderRabbitProject\l::bingo::lottery_machine::next">
<polygon fill="white" stroke="black" points="168.5,-5 168.5,-35 327.5,-35 327.5,-5 168.5,-5"/>
<text text-anchor="start" x="176.5" y="-23" font-family="Helvetica,sans-Serif" font-size="10.00">WonderRabbitProject</text>
<text text-anchor="middle" x="248" y="-12" font-family="Helvetica,sans-Serif" font-size="10.00">::bingo::lottery_machine::next</text>
</a>
</g>
<!-- Node1&#45;&gt;Node2 -->
<g id="edge2" class="edge"><title>Node1&#45;&gt;Node2</title>
<path fill="none" stroke="midnightblue" d="M142.296,-20C150.954,-20 159.798,-20 168.497,-20"/>
<polygon fill="midnightblue" stroke="midnightblue" points="142.239,-16.5001 132.239,-20 142.239,-23.5001 142.239,-16.5001"/>
</g>
<!-- Node3 -->
<g id="node5" class="node"><title>Node3</title>
<a xlink:href="structWonderRabbitProject_1_1bingo_1_1lottery__machine.html#ade94ee7680683f040670cb1abf25d1f6" target="_top" xlink:title="WonderRabbitProject\l::bingo::lottery_machine\l::operator()">
<polygon fill="white" stroke="black" points="364,0.5 364,-40.5 496,-40.5 496,0.5 364,0.5"/>
<text text-anchor="start" x="372" y="-28.5" font-family="Helvetica,sans-Serif" font-size="10.00">WonderRabbitProject</text>
<text text-anchor="start" x="372" y="-17.5" font-family="Helvetica,sans-Serif" font-size="10.00">::bingo::lottery_machine</text>
<text text-anchor="middle" x="430" y="-6.5" font-family="Helvetica,sans-Serif" font-size="10.00">::operator()</text>
</a>
</g>
<!-- Node2&#45;&gt;Node3 -->
<g id="edge4" class="edge"><title>Node2&#45;&gt;Node3</title>
<path fill="none" stroke="midnightblue" d="M337.952,-20C346.716,-20 355.494,-20 363.952,-20"/>
<polygon fill="midnightblue" stroke="midnightblue" points="337.689,-16.5001 327.689,-20 337.689,-23.5001 337.689,-16.5001"/>
</g>
</g>
</svg>
