<?xml version="1.0" encoding="UTF-8" standalone="no"?>
<!DOCTYPE svg PUBLIC "-//W3C//DTD SVG 1.1//EN"
 "http://www.w3.org/Graphics/SVG/1.1/DTD/svg11.dtd">
<!-- Generated by graphviz version 2.28.0 (20120716.1447)
 -->
<!-- Title: G Pages: 1 -->
<svg width="282pt" height="38pt"
 viewBox="0.00 0.00 282.00 38.00" xmlns="http://www.w3.org/2000/svg" xmlns:xlink="http://www.w3.org/1999/xlink">
<g id="graph1" class="graph" transform="scale(1 1) rotate(0) translate(4 34)">
<title>G</title>
<polygon fill="white" stroke="white" points="-4,5 -4,-34 279,-34 279,5 -4,5"/>
<!-- Node1 -->
<g id="node1" class="node"><title>Node1</title>
<polygon fill="#bfbfbf" stroke="black" points="0.5,-0 0.5,-30 121.5,-30 121.5,-0 0.5,-0"/>
<text text-anchor="start" x="8.5" y="-18" font-family="Helvetica,sans-Serif" font-size="10.00">WonderRabbitProject</text>
<text text-anchor="middle" x="61" y="-7" font-family="Helvetica,sans-Serif" font-size="10.00">::bingo::card::is_bingo</text>
</g>
<!-- Node2 -->
<g id="node3" class="node"><title>Node2</title>
<a xlink:href="structWonderRabbitProject_1_1bingo_1_1card.html#abc7f46f16bf63ac7066807e9cc0725b6" target="_top" xlink:title="WonderRabbitProject\l::bingo::card::push">
<polygon fill="white" stroke="black" points="158.5,-0 158.5,-30 273.5,-30 273.5,-0 158.5,-0"/>
<text text-anchor="start" x="166.5" y="-18" font-family="Helvetica,sans-Serif" font-size="10.00">WonderRabbitProject</text>
<text text-anchor="middle" x="216" y="-7" font-family="Helvetica,sans-Serif" font-size="10.00">::bingo::card::push</text>
</a>
</g>
<!-- Node1&#45;&gt;Node2 -->
<g id="edge2" class="edge"><title>Node1&#45;&gt;Node2</title>
<path fill="none" stroke="midnightblue" d="M131.61,-15C140.554,-15 149.624,-15 158.327,-15"/>
<polygon fill="midnightblue" stroke="midnightblue" points="131.592,-11.5001 121.592,-15 131.592,-18.5001 131.592,-11.5001"/>
</g>
</g>
</svg>
