<?xml version="1.0" encoding="UTF-8" standalone="no"?>
<!DOCTYPE svg PUBLIC "-//W3C//DTD SVG 1.1//EN"
 "http://www.w3.org/Graphics/SVG/1.1/DTD/svg11.dtd">
<!-- Generated by graphviz version 2.28.0 (20120716.1447)
 -->
<!-- Title: G Pages: 1 -->
<svg width="336pt" height="48pt"
 viewBox="0.00 0.00 336.00 48.00" xmlns="http://www.w3.org/2000/svg" xmlns:xlink="http://www.w3.org/1999/xlink">
<g id="graph1" class="graph" transform="scale(1 1) rotate(0) translate(4 44)">
<title>G</title>
<polygon fill="white" stroke="white" points="-4,5 -4,-44 333,-44 333,5 -4,5"/>
<!-- Node1 -->
<g id="node1" class="node"><title>Node1</title>
<polygon fill="#bfbfbf" stroke="black" points="0.5,-5 0.5,-35 159.5,-35 159.5,-5 0.5,-5"/>
<text text-anchor="start" x="8.5" y="-23" font-family="Helvetica,sans-Serif" font-size="10.00">WonderRabbitProject</text>
<text text-anchor="middle" x="80" y="-12" font-family="Helvetica,sans-Serif" font-size="10.00">::bingo::lottery_machine::next</text>
</g>
<!-- Node2 -->
<g id="node3" class="node"><title>Node2</title>
<a xlink:href="structWonderRabbitProject_1_1bingo_1_1lottery__machine.html#aa091af0e43ae1195968cec3d029dd6ae" target="_top" xlink:title="WonderRabbitProject\l::bingo::lottery_machine\l::shuffle">
<polygon fill="white" stroke="black" points="196,0.5 196,-40.5 328,-40.5 328,0.5 196,0.5"/>
<text text-anchor="start" x="204" y="-28.5" font-family="Helvetica,sans-Serif" font-size="10.00">WonderRabbitProject</text>
<text text-anchor="start" x="204" y="-17.5" font-family="Helvetica,sans-Serif" font-size="10.00">::bingo::lottery_machine</text>
<text text-anchor="middle" x="262" y="-6.5" font-family="Helvetica,sans-Serif" font-size="10.00">::shuffle</text>
</a>
</g>
<!-- Node1&#45;&gt;Node2 -->
<g id="edge2" class="edge"><title>Node1&#45;&gt;Node2</title>
<path fill="none" stroke="midnightblue" d="M159.689,-20C168.392,-20 177.239,-20 185.896,-20"/>
<polygon fill="midnightblue" stroke="midnightblue" points="185.952,-23.5001 195.952,-20 185.952,-16.5001 185.952,-23.5001"/>
</g>
</g>
</svg>
